<svg xmlns="http://www.w3.org/2000/svg" width="134" height="132" viewBox="0 0 134 132">
    <g fill="none" fill-rule="evenodd">
        <path fill="#35A849" d="M2.006 113.348L30.59 129.69l28.584-16.342V80.671L30.59 64.33 2.006 80.67v32.677zm28.547 17.49L1 113.926V80.094L30.553 63.18l29.553 16.913v33.832l-29.553 16.912z"/>
        <path stroke="#35A849" stroke-linecap="round" stroke-linejoin="round" stroke-width="1.6" d="M2.006 113.348L30.59 129.69l28.584-16.342V80.671L30.59 64.33 2.006 80.67v32.677zm28.547 17.49L1 113.926V80.094L30.553 63.18l29.553 16.913v33.832l-29.553 16.912z"/>
        <path fill="#35A849" d="M27.668 105.648a.485.485 0 0 1-.484-.485c.01-4.99.012-8.282.006-9.076a.604.604 0 0 1-.006-.035c-.458-3.987-3.995-7.11-8.052-7.11h-5.607a.46.46 0 0 0-.46.459v1.814c0 .025.002.05.005.073.502 3.957 4.058 7.056 8.096 7.056h1.786a.484.484 0 1 1 0 .969h-1.786c-4.517 0-8.495-3.471-9.057-7.902a1.571 1.571 0 0 1-.012-.196v-1.814c0-.788.64-1.428 1.428-1.428h5.607c4.469 0 8.375 3.39 8.988 7.755.016.06.025.122.03.185h.002v.016c.006.079.007.158.007.23l.002.78v2.548c-.001 1.978-.005 4.3-.008 5.678a.484.484 0 0 1-.485.483"/>
        <path stroke="#35A849" stroke-width=".8" d="M27.668 105.648a.485.485 0 0 1-.484-.485c.01-4.99.012-8.282.006-9.076a.604.604 0 0 1-.006-.035c-.458-3.987-3.995-7.11-8.052-7.11h-5.607a.46.46 0 0 0-.46.459v1.814c0 .025.002.05.005.073.502 3.957 4.058 7.056 8.096 7.056h1.786a.484.484 0 1 1 0 .969h-1.786c-4.517 0-8.495-3.471-9.057-7.902a1.571 1.571 0 0 1-.012-.196v-1.814c0-.788.64-1.428 1.428-1.428h5.607c4.469 0 8.375 3.39 8.988 7.755.016.06.025.122.03.185h.002v.016c.006.079.007.158.007.23l.002.78v2.548c-.001 1.978-.005 4.3-.008 5.678a.484.484 0 0 1-.485.483z"/>
        <path fill="#35A849" d="M26.87 89.49a.485.485 0 0 1-.485-.485 681.349 681.349 0 0 1 .011-3.21c.003-.28.006-.528.091-.692.721-4.243 4.554-7.501 8.93-7.501h5.593c.787 0 1.428.64 1.428 1.428v1.815c0 .065-.004.13-.012.195-.561 4.43-4.532 7.902-9.04 7.902h-1.78a.484.484 0 1 1 0-.97h1.78c4.03 0 7.578-3.098 8.079-7.054a.559.559 0 0 0 .004-.073V79.03a.46.46 0 0 0-.46-.46h-5.592c-4.05 0-7.58 3.124-8.034 7.11a.523.523 0 0 1-.018.088c-.006.548-.01 1.701-.011 3.238a.484.484 0 0 1-.485.484"/>
        <path stroke="#35A849" stroke-width=".8" d="M26.87 89.49a.485.485 0 0 1-.485-.485 681.349 681.349 0 0 1 .011-3.21c.003-.28.006-.528.091-.692.721-4.243 4.554-7.501 8.93-7.501h5.593c.787 0 1.428.64 1.428 1.428v1.815c0 .065-.004.13-.012.195-.561 4.43-4.532 7.902-9.04 7.902h-1.78a.484.484 0 1 1 0-.97h1.78c4.03 0 7.578-3.098 8.079-7.054a.559.559 0 0 0 .004-.073V79.03a.46.46 0 0 0-.46-.46h-5.592c-4.05 0-7.58 3.124-8.034 7.11a.523.523 0 0 1-.018.088c-.006.548-.01 1.701-.011 3.238a.484.484 0 0 1-.485.484z"/>
        <path fill="#35A849" d="M38.052 120.721a.482.482 0 0 1-.351-.15l-2.675-2.811a.633.633 0 0 0-.446-.179H22.134c-.43 0-.835-.167-1.14-.472l-5.984-5.976a1.94 1.94 0 0 1-.573-1.384c0-.524.205-1.015.576-1.384.37-.369.875-.57 1.385-.569a1.942 1.942 0 0 1 1.382.58l4.486 4.533c.12.122.287.191.458.191H33.29a.645.645 0 0 0 0-1.288h-5.844c-1.29 0-2.34-1.05-2.34-2.341a2.243 2.243 0 0 1 2.24-2.24h7.616a7.75 7.75 0 0 1 5.195 1.994l4.893 4.465a.485.485 0 0 1-.653.716l-4.89-4.463a6.778 6.778 0 0 0-4.545-1.744h-7.616c-.701 0-1.271.57-1.271 1.272 0 .756.615 1.372 1.371 1.372h5.844c.89 0 1.614.723 1.614 1.613s-.724 1.613-1.614 1.613H22.724c-.428 0-.846-.174-1.147-.478l-4.485-4.534a.979.979 0 0 0-.697-.292h-.004a.978.978 0 0 0-.695.287.979.979 0 0 0-.29.698c0 .264.102.511.289.698l5.984 5.976a.64.64 0 0 0 .455.188H34.58c.43 0 .834.167 1.139.47l2.684 2.82a.484.484 0 0 1-.351.819"/>
        <path stroke="#35A849" stroke-width=".8" d="M38.052 120.721a.482.482 0 0 1-.351-.15l-2.675-2.811a.633.633 0 0 0-.446-.179H22.134c-.43 0-.835-.167-1.14-.472l-5.984-5.976a1.94 1.94 0 0 1-.573-1.384c0-.524.205-1.015.576-1.384.37-.369.875-.57 1.385-.569a1.942 1.942 0 0 1 1.382.58l4.486 4.533c.12.122.287.191.458.191H33.29a.645.645 0 0 0 0-1.288h-5.844c-1.29 0-2.34-1.05-2.34-2.341a2.243 2.243 0 0 1 2.24-2.24h7.616a7.75 7.75 0 0 1 5.195 1.994l4.893 4.465a.485.485 0 0 1-.653.716l-4.89-4.463a6.778 6.778 0 0 0-4.545-1.744h-7.616c-.701 0-1.271.57-1.271 1.272 0 .756.615 1.372 1.371 1.372h5.844c.89 0 1.614.723 1.614 1.613s-.724 1.613-1.614 1.613H22.724c-.428 0-.846-.174-1.147-.478l-4.485-4.534a.979.979 0 0 0-.697-.292h-.004a.978.978 0 0 0-.695.287.979.979 0 0 0-.29.698c0 .264.102.511.289.698l5.984 5.976a.64.64 0 0 0 .455.188H34.58c.43 0 .834.167 1.139.47l2.684 2.82a.484.484 0 0 1-.351.819z"/>
        <path fill="#35A849" d="M38.24 51.167L66.822 67.51l28.584-16.342V18.49L66.823 2.15 38.24 18.49v32.677zm28.583 17.49L37.27 51.746V17.913L66.823 1l29.553 16.913v33.832L66.823 68.658z"/>
        <path stroke="#35A849" stroke-linecap="round" stroke-linejoin="round" stroke-width="1.6" d="M38.24 51.167L66.822 67.51l28.584-16.342V18.49L66.823 2.15 38.24 18.49v32.677zm28.583 17.49L37.27 51.746V17.913L66.823 1l29.553 16.913v33.832L66.823 68.658z"/>
        <path fill="#35A849" d="M73.607 42.768h-9.685c-.169 0-.317-.272-.361-.435-2.647-9.759-1.164-16.688.546-20.716 1.864-4.391 4.336-6.474 4.44-6.559.138-.111.336-.131.473-.02.229.188 5.623 4.69 6.33 14.749a.37.37 0 0 1-.346.394.375.375 0 0 1-.399-.35c-.602-8.552-4.778-13.026-5.823-14.018-.656.62-2.545 2.81-4.005 6.27-1.636 3.876-3.05 10.673-.568 20.04h9.11c.24-.97.45-2.019.626-2.899.04-.202.238-.439.44-.398.202.04.334.185.293.387-.197.987-.436 2.133-.71 3.146-.045.163-.193.409-.361.409"/>
        <path stroke="#35A849" stroke-linecap="round" stroke-linejoin="round" stroke-width=".8" d="M73.607 42.768h-9.685c-.169 0-.317-.272-.361-.435-2.647-9.759-1.164-16.688.546-20.716 1.864-4.391 4.336-6.474 4.44-6.559.138-.111.336-.131.473-.02.229.188 5.623 4.69 6.33 14.749a.37.37 0 0 1-.346.394.375.375 0 0 1-.399-.35c-.602-8.552-4.778-13.026-5.823-14.018-.656.62-2.545 2.81-4.005 6.27-1.636 3.876-3.05 10.673-.568 20.04h9.11c.24-.97.45-2.019.626-2.899.04-.202.238-.439.44-.398.202.04.334.185.293.387-.197.987-.436 2.133-.71 3.146-.045.163-.193.409-.361.409z"/>
        <path fill="#35A849" d="M74.702 36.599a.374.374 0 0 1-.371-.42c.174-1.396.3-2.794.375-4.154a.374.374 0 0 1 .747.041 60.788 60.788 0 0 1-.38 4.205.374.374 0 0 1-.37.328"/>
        <path stroke="#35A849" stroke-linecap="round" stroke-linejoin="round" stroke-width=".8" d="M74.702 36.599a.374.374 0 0 1-.371-.42c.174-1.396.3-2.794.375-4.154a.374.374 0 0 1 .747.041 60.788 60.788 0 0 1-.38 4.205.374.374 0 0 1-.37.328z"/>
        <path fill="#35A849" d="M68.767 23.276a2.412 2.412 0 0 0-2.409 2.41c0 1.327 1.08 2.408 2.41 2.408a2.412 2.412 0 0 0 2.408-2.409c0-1.328-1.08-2.409-2.409-2.409m0 5.317a2.91 2.91 0 0 1-2.907-2.908 2.91 2.91 0 0 1 2.907-2.907 2.91 2.91 0 0 1 2.908 2.907 2.91 2.91 0 0 1-2.908 2.908"/>
        <path stroke="#35A849" stroke-linecap="round" stroke-linejoin="round" stroke-width=".8" d="M68.767 23.276a2.412 2.412 0 0 0-2.409 2.41c0 1.327 1.08 2.408 2.41 2.408a2.412 2.412 0 0 0 2.408-2.409c0-1.328-1.08-2.409-2.409-2.409zm0 5.317a2.91 2.91 0 0 1-2.907-2.908 2.91 2.91 0 0 1 2.907-2.907 2.91 2.91 0 0 1 2.908 2.907 2.91 2.91 0 0 1-2.908 2.908z"/>
        <path fill="#35A849" d="M72.494 21.128h-7.227c-.138 0-.25-.185-.25-.323s.112-.323.25-.323h7.227c.138 0 .25.185.25.323s-.112.323-.25.323"/>
        <path stroke="#35A849" stroke-linecap="round" stroke-linejoin="round" stroke-width=".8" d="M72.494 21.128h-7.227c-.138 0-.25-.185-.25-.323s.112-.323.25-.323h7.227c.138 0 .25.185.25.323s-.112.323-.25.323z"/>
        <path fill="#35A849" d="M64.822 45.029h8.457l-1.204-1.922-6.057.112-1.196 1.81zm8.92.646h-9.39c-.093 0-.177-.22-.22-.3-.044-.082-.038-.265.013-.34l1.533-2.303c.046-.068.122-.13.204-.13l6.324-.078a.223.223 0 0 1 .21.106l1.533 2.325c.05.077.055.342.011.422-.043.08-.127.298-.219.298z"/>
        <path stroke="#35A849" stroke-linecap="round" stroke-linejoin="round" stroke-width=".8" d="M64.822 45.029h8.457l-1.204-1.922-6.057.112-1.196 1.81zm8.92.646h-9.39c-.093 0-.177-.22-.22-.3-.044-.082-.038-.265.013-.34l1.533-2.303c.046-.068.122-.13.204-.13l6.324-.078a.223.223 0 0 1 .21.106l1.533 2.325c.05.077.055.342.011.422-.043.08-.127.298-.219.298z"/>
        <path fill="#35A849" d="M80.448 38.716a.376.376 0 0 1-.153-.033l-3.833-1.724a.374.374 0 0 1 .307-.682l3.305 1.487v-8.186l-3.612-1.626a.374.374 0 1 1 .307-.682l3.833 1.725c.134.06.22.194.22.341v9.007a.373.373 0 0 1-.374.373"/>
        <path stroke="#35A849" stroke-linecap="round" stroke-linejoin="round" stroke-width=".8" d="M80.448 38.716a.376.376 0 0 1-.153-.033l-3.833-1.724a.374.374 0 0 1 .307-.682l3.305 1.487v-8.186l-3.612-1.626a.374.374 0 1 1 .307-.682l3.833 1.725c.134.06.22.194.22.341v9.007a.373.373 0 0 1-.374.373z"/>
        <path fill="#35A849" d="M57.094 38.716a.374.374 0 0 1-.374-.373v-9.007c0-.146.085-.28.219-.34l3.784-1.725a.375.375 0 0 1 .31.68l-3.565 1.626v8.184l3.255-1.484a.374.374 0 0 1 .31.681l-3.784 1.725a.371.371 0 0 1-.155.033"/>
        <path stroke="#35A849" stroke-linecap="round" stroke-linejoin="round" stroke-width=".8" d="M57.094 38.716a.374.374 0 0 1-.374-.373v-9.007c0-.146.085-.28.219-.34l3.784-1.725a.375.375 0 0 1 .31.68l-3.565 1.626v8.184l3.255-1.484a.374.374 0 0 1 .31.681l-3.784 1.725a.371.371 0 0 1-.155.033z"/>
        <path fill="#35A849" d="M66.5 52.165c-.206 0-.484-.168-.484-.374v-3.988c0-.206.278-.373.484-.373.207 0 .485.167.485.373v3.988c0 .206-.278.374-.485.374"/>
        <path stroke="#35A849" stroke-linecap="round" stroke-linejoin="round" stroke-width=".8" d="M66.5 52.165c-.206 0-.484-.168-.484-.374v-3.988c0-.206.278-.373.484-.373.207 0 .485.167.485.373v3.988c0 .206-.278.374-.485.374z"/>
        <path fill="#35A849" d="M72.314 55.903c-.206 0-.485-.168-.485-.374v-1.993c0-.207.279-.374.485-.374.206 0 .484.167.484.374v1.993c0 .206-.278.374-.484.374"/>
        <path stroke="#35A849" stroke-linecap="round" stroke-linejoin="round" stroke-width=".8" d="M72.314 55.903c-.206 0-.485-.168-.485-.374v-1.993c0-.207.279-.374.485-.374.206 0 .484.167.484.374v1.993c0 .206-.278.374-.484.374z"/>
        <path fill="#35A849" d="M72.314 52.165c-.206 0-.485-.168-.485-.374v-4.237c0-.206.279-.374.485-.374.206 0 .484.168.484.374v4.237c0 .206-.278.374-.484.374"/>
        <path stroke="#35A849" stroke-linecap="round" stroke-linejoin="round" stroke-width=".8" d="M72.314 52.165c-.206 0-.485-.168-.485-.374v-4.237c0-.206.279-.374.485-.374.206 0 .484.168.484.374v4.237c0 .206-.278.374-.484.374z"/>
        <path fill="#35A849" d="M68.277 56.152c-.207 0-.323-.167-.323-.373v-5.982c0-.206.116-.374.323-.374.206 0 .323.168.323.374v5.982c0 .206-.117.373-.323.373"/>
        <path stroke="#35A849" stroke-linecap="round" stroke-linejoin="round" stroke-width=".8" d="M68.277 56.152c-.207 0-.323-.167-.323-.373v-5.982c0-.206.116-.374.323-.374.206 0 .323.168.323.374v5.982c0 .206-.117.373-.323.373z"/>
        <path fill="#35A849" d="M70.215 60.01c-.207 0-.323-.167-.323-.374v-2.99c0-.207.116-.374.323-.374.206 0 .323.167.323.374v2.99c0 .207-.117.374-.323.374"/>
        <path stroke="#35A849" stroke-linecap="round" stroke-linejoin="round" stroke-width=".8" d="M70.215 60.01c-.207 0-.323-.167-.323-.374v-2.99c0-.207.116-.374.323-.374.206 0 .323.167.323.374v2.99c0 .207-.117.374-.323.374z"/>
        <path fill="#35A849" d="M70.215 53.91c-.207 0-.323-.168-.323-.374v-5.234c0-.207.116-.374.323-.374.206 0 .323.167.323.374v5.234c0 .206-.117.373-.323.373"/>
        <path stroke="#35A849" stroke-linecap="round" stroke-linejoin="round" stroke-width=".8" d="M70.215 53.91c-.207 0-.323-.168-.323-.374v-5.234c0-.207.116-.374.323-.374.206 0 .323.167.323.374v5.234c0 .206-.117.373-.323.373z"/>
        <path fill="#35A849" d="M73.99 40.507h-8.474c-.138 0-.25-.023-.25-.161s.112-.162.25-.162h8.473c.138 0 .25.024.25.162s-.112.161-.25.161"/>
        <path stroke="#35A849" stroke-linecap="round" stroke-linejoin="round" stroke-width=".8" d="M73.99 40.507h-8.474c-.138 0-.25-.023-.25-.161s.112-.162.25-.162h8.473c.138 0 .25.024.25.162s-.112.161-.25.161z"/>
        <path fill="#35A849" d="M69.752 38.246h-6.48c-.137 0-.248-.185-.248-.323s.11-.323.249-.323h6.48c.137 0 .249.185.249.323s-.112.323-.25.323"/>
        <path stroke="#35A849" stroke-linecap="round" stroke-linejoin="round" stroke-width=".8" d="M69.752 38.246h-6.48c-.137 0-.248-.185-.248-.323s.11-.323.249-.323h6.48c.137 0 .249.185.249.323s-.112.323-.25.323z"/>
        <path fill="#35A849" d="M74.875 112.224l28.422 16.34 28.422-16.34V79.546l-28.422-16.34-28.422 16.34v32.678zm28.926 17.49l-.492-.143-29.403-16.77V78.97l.493-.144 29.28-16.77.05.143 28.96 16.77v33.832l.01.143-28.898 16.77z"/>
        <path stroke="#35A849" stroke-linecap="round" stroke-linejoin="round" stroke-width="1.6" d="M74.875 112.224l28.422 16.34 28.422-16.34V79.546l-28.422-16.34-28.422 16.34v32.678zm28.926 17.49l-.492-.143-29.403-16.77V78.97l.493-.144 29.28-16.77.05.143 28.96 16.77v33.832l.01.143-28.898 16.77z"/>
        <path fill="#35A849" d="M93.135 107.392c-3.876 0-7.15-3.383-7.15-7.412 0-.207.167-.354.374-.354H99.91c.206 0 .374.147.374.354a7.56 7.56 0 0 1-1.604 4.614.373.373 0 0 1-.525.061c-.163-.126-.192-.233-.065-.397.854-1.1 1.356-2.371 1.435-3.663H86.743c.193 3.552 3.041 6.18 6.392 6.18 1.269 0 2.503-.472 3.57-1.242.167-.12.4-.116.52.052a.355.355 0 0 1-.083.505 6.8 6.8 0 0 1-4.007 1.302"/>
        <path stroke="#35A849" stroke-linecap="round" stroke-linejoin="round" stroke-width=".8" d="M93.135 107.392c-3.876 0-7.15-3.383-7.15-7.412 0-.207.167-.354.374-.354H99.91c.206 0 .374.147.374.354a7.56 7.56 0 0 1-1.604 4.614.373.373 0 0 1-.525.061c-.163-.126-.192-.233-.065-.397.854-1.1 1.356-2.371 1.435-3.663H86.743c.193 3.552 3.041 6.18 6.392 6.18 1.269 0 2.503-.472 3.57-1.242.167-.12.4-.116.52.052a.355.355 0 0 1-.083.505 6.8 6.8 0 0 1-4.007 1.302z"/>
        <path fill="#35A849" d="M88.653 100a.374.374 0 0 1-.349-.508l4.63-11.775c.056-.144.194-.042.348-.042.155 0 .293-.103.349.041l4.63 11.76c.075.191-.02.359-.212.434-.193.076-.41-.045-.484-.237l-4.28-10.974L89 99.766a.369.369 0 0 1-.348.233"/>
        <path stroke="#35A849" stroke-linecap="round" stroke-linejoin="round" stroke-width=".8" d="M88.653 100a.374.374 0 0 1-.349-.508l4.63-11.775c.056-.144.194-.042.348-.042.155 0 .293-.103.349.041l4.63 11.76c.075.191-.02.359-.212.434-.193.076-.41-.045-.484-.237l-4.28-10.974L89 99.766a.369.369 0 0 1-.348.233z"/>
        <path fill="#35A849" d="M116.173 107.299c-3.876 0-7.15-3.341-7.15-7.32 0-.206.167-.353.374-.353h13.552c.206 0 .374.147.374.354 0 .32-.066.943-.192 1.536a.372.372 0 0 1-.443.283c-.203-.043-.331-.113-.289-.316.073-.342.126-.565.154-.888h-12.772c.196 3.23 3.043 6.086 6.392 6.086 1.618 0 3.174-.728 4.38-1.933.147-.145.383-.178.53-.031a.355.355 0 0 1-.001.512c-1.348 1.345-3.091 2.07-4.91 2.07"/>
        <path stroke="#35A849" stroke-linecap="round" stroke-linejoin="round" stroke-width=".8" d="M116.173 107.299c-3.876 0-7.15-3.341-7.15-7.32 0-.206.167-.353.374-.353h13.552c.206 0 .374.147.374.354 0 .32-.066.943-.192 1.536a.372.372 0 0 1-.443.283c-.203-.043-.331-.113-.289-.316.073-.342.126-.565.154-.888h-12.772c.196 3.23 3.043 6.086 6.392 6.086 1.618 0 3.174-.728 4.38-1.933.147-.145.383-.178.53-.031a.355.355 0 0 1-.001.512c-1.348 1.345-3.091 2.07-4.91 2.07z"/>
        <path fill="#35A849" d="M111.638 100a.372.372 0 0 1-.348-.509l4.63-11.774c.056-.144.194-.042.348-.042.155 0 .293-.103.35.041l4.63 11.76c.074.191-.02.359-.213.434-.193.076-.41-.045-.484-.237l-4.28-10.974-4.284 11.067a.369.369 0 0 1-.349.233"/>
        <path stroke="#35A849" stroke-linecap="round" stroke-linejoin="round" stroke-width=".8" d="M111.638 100a.372.372 0 0 1-.348-.509l4.63-11.774c.056-.144.194-.042.348-.042.155 0 .293-.103.35.041l4.63 11.76c.074.191-.02.359-.213.434-.193.076-.41-.045-.484-.237l-4.28-10.974-4.284 11.067a.369.369 0 0 1-.349.233z"/>
        <path fill="#35A849" d="M104.428 115.101c-.31 0-.485-.251-.485-.56V76.781c0-.31.175-.56.485-.56s.484.25.484.56v37.758c0 .31-.175.561-.484.561"/>
        <path stroke="#35A849" stroke-linecap="round" stroke-linejoin="round" stroke-width=".8" d="M104.428 115.101c-.31 0-.485-.251-.485-.56V76.781c0-.31.175-.56.485-.56s.484.25.484.56v37.758c0 .31-.175.561-.484.561z"/>
        <path fill="#35A849" d="M114.241 86.706H95.175c-.31 0-.56-.213-.56-.484s.25-.485.56-.485h19.066c.31 0 .561.214.561.485 0 .27-.251.484-.56.484"/>
        <path stroke="#35A849" stroke-linecap="round" stroke-linejoin="round" stroke-width=".8" d="M114.241 86.706H95.175c-.31 0-.56-.213-.56-.484s.25-.485.56-.485h19.066c.31 0 .561.214.561.485 0 .27-.251.484-.56.484z"/>
        <path fill="#35A849" d="M93.423 87.186a1.122 1.122 0 1 1 0-2.244 1.122 1.122 0 0 1 0 2.244m0-3.268a2.145 2.145 0 1 0 0 4.291 2.145 2.145 0 0 0 0-4.29"/>
        <path stroke="#35A849" stroke-linecap="round" stroke-linejoin="round" stroke-width=".8" d="M93.423 87.186a1.122 1.122 0 1 1 0-2.244 1.122 1.122 0 0 1 0 2.244zm0-3.268a2.145 2.145 0 1 0 0 4.291 2.145 2.145 0 0 0 0-4.29z"/>
        <path fill="#35A849" d="M116.165 87.06a1.122 1.122 0 1 1 0-2.243 1.122 1.122 0 0 1 0 2.244m0-3.267a2.146 2.146 0 1 0 0 4.291 2.146 2.146 0 0 0 0-4.291"/>
        <path stroke="#35A849" stroke-linecap="round" stroke-linejoin="round" stroke-width=".8" d="M116.165 87.06a1.122 1.122 0 1 1 0-2.243 1.122 1.122 0 0 1 0 2.244zm0-3.266a2.146 2.146 0 1 0 0 4.291 2.146 2.146 0 0 0 0-4.291z"/>
    </g>
</svg>
