<svg xmlns="http://www.w3.org/2000/svg" xmlns:xlink="http://www.w3.org/1999/xlink" width="113" height="130" viewBox="0 0 113 130">
    <defs>
        <path id="a" d="M0 129.387h112.83V.32H0z"/>
    </defs>
    <g fill="none" fill-rule="evenodd">
        <path fill="#35A849" d="M34.332 39.967h-3.266v-.85h7.516v.85h-3.267v8.445h-.983zM45.155 45.133l-2.231-4.993-2.231 4.993h4.462zm.358.796h-5.178l-1.116 2.484h-1.023l4.25-9.296h.969l4.25 9.296h-1.037l-1.115-2.484zM49.205 39.118h.983v8.445h5.205v.85h-6.188zM57.026 39.118h.983v8.445h5.205v.85h-6.188zM71.42 47.563v.85h-6.573v-9.295h6.374v.85h-5.39v3.306h4.806v.836H65.83v3.453z"/>
        <g transform="translate(0 .293)">
            <path fill="#35A849" d="M79.295 43.724c.487-.407.73-.978.73-1.713 0-.753-.243-1.33-.73-1.732-.487-.403-1.19-.604-2.111-.604h-2.47v4.66h2.47c.92 0 1.624-.204 2.11-.61zm.783 4.396l-2.124-2.988c-.24.026-.487.04-.744.04h-2.496v2.948h-.983v-9.295h3.48c1.185 0 2.115.283 2.787.85.673.566 1.01 1.345 1.01 2.336 0 .726-.184 1.34-.551 1.84-.367.5-.892.86-1.574 1.082l2.271 3.187h-1.076zM22.126 62.678c1.195 0 2.155-.34 2.878-1.016.724-.678 1.086-1.614 1.086-2.809s-.362-2.131-1.086-2.808c-.723-.678-1.683-1.016-2.878-1.016h-2.49v7.649h2.49zm-6.434-10.796h6.593c1.527 0 2.882.285 4.064.856 1.181.571 2.098 1.381 2.748 2.43.65 1.05.977 2.278.977 3.685 0 1.408-.326 2.636-.977 3.685-.65 1.05-1.567 1.86-2.748 2.43-1.182.571-2.537.857-4.064.857h-6.593V51.882z"/>
            <mask id="b" fill="#fff">
                <use xlink:href="#a"/>
            </mask>
            <path fill="#35A849" d="M32.144 65.825h3.944V51.882h-3.944zM52.163 51.881v13.944h-3.247l-6.155-7.43v7.43h-3.864V51.88h3.247l6.154 7.43v-7.43zM66.146 62.777v3.048H54.95V51.88h10.935v3.048h-7.03v2.35h6.194v2.949h-6.195v2.55zM76.304 55.527c-.412-.359-1.023-.538-1.833-.538H72.28v4.083h2.191c.81 0 1.421-.176 1.833-.527.411-.352.617-.854.617-1.504 0-.651-.206-1.156-.617-1.514zM74.43 62.12H72.28v3.705h-3.944V51.882h6.374c1.262 0 2.357.209 3.287.627.929.419 1.646 1.016 2.151 1.793.504.777.757 1.69.757 2.739 0 1.009-.236 1.889-.707 2.639-.471.75-1.146 1.338-2.022 1.762l3.008 4.383h-4.223l-2.53-3.705zM19.858 78.015l-1.195-2.974-1.195 2.974h2.39zm.77 1.939h-3.93l-.73 1.806h-2.683l4.104-9.295h2.589l4.116 9.295h-2.735l-.73-1.806zM30.68 74.55h-2.854v-2.085h8.325v2.084H33.31v7.21h-2.63zM38.057 80.817c-.766-.753-1.149-1.82-1.149-3.2v-5.152h2.63v5.072c0 1.487.588 2.231 1.766 2.231 1.168 0 1.752-.744 1.752-2.231v-5.072h2.59v5.151c0 1.382-.383 2.448-1.149 3.201-.766.753-1.839 1.129-3.22 1.129-1.38 0-2.455-.376-3.22-1.129M53.919 74.496v2.045h4.103v2.031h-4.103v3.188h-2.63v-9.296h7.29v2.032zM64.914 78.015l-1.195-2.974-1.195 2.974h2.39zm.77 1.939h-3.93l-.731 1.806h-2.682l4.103-9.295h2.59l4.116 9.295h-2.736l-.73-1.806zM78.804 72.465L74.82 81.76h-2.59l-3.97-9.295h2.842l2.523 6.054 2.576-6.054zM85.191 79.436c.38-.221.681-.533.903-.936.221-.403.332-.866.332-1.388 0-.522-.111-.985-.332-1.387a2.397 2.397 0 0 0-.903-.937 2.496 2.496 0 0 0-1.275-.332c-.47 0-.894.111-1.275.332-.38.222-.682.534-.903.937-.22.402-.332.865-.332 1.387s.111.985.332 1.388c.221.403.522.715.903.936.381.221.805.332 1.275.332.47 0 .894-.11 1.275-.332m-3.924 1.885a4.678 4.678 0 0 1-1.846-1.726c-.447-.734-.67-1.562-.67-2.483 0-.92.223-1.749.67-2.483a4.682 4.682 0 0 1 1.846-1.726c.783-.416 1.666-.625 2.65-.625.981 0 1.865.209 2.648.625a4.69 4.69 0 0 1 1.846 1.726c.446.734.67 1.562.67 2.483 0 .92-.224 1.75-.67 2.483a4.686 4.686 0 0 1-1.846 1.726c-.783.417-1.667.625-2.649.625-.983 0-1.866-.208-2.649-.625M95.774 74.895c-.274-.24-.681-.359-1.221-.359h-1.461v2.722h1.46c.54 0 .948-.117 1.222-.352.274-.234.412-.568.412-1.002 0-.434-.138-.77-.412-1.01zm-1.248 4.395h-1.434v2.47h-2.63v-9.295h4.25c.84 0 1.571.139 2.191.418.62.279 1.098.677 1.434 1.195.337.518.505 1.126.505 1.826 0 .673-.158 1.259-.472 1.76-.314.5-.764.892-1.347 1.175l2.005 2.92h-2.815l-1.687-2.47z" mask="url(#b)"/>
            <path fill="#35A849" d="M2.146 95.873l54.27 31.027 54.268-31.027v-62.04L56.415 2.808 2.146 33.834v62.04zm54.27 33.207L.305 96.97V32.737L56.417.627l56.108 32.11V96.97l-56.109 32.11z" mask="url(#b)"/>
            <path stroke="#35A849" stroke-linecap="round" stroke-linejoin="round" d="M2.146 95.873l54.27 31.027 54.268-31.027v-62.04L56.415 2.808 2.146 33.834v62.04zm54.27 33.207L.305 96.97V32.737L56.417.627l56.108 32.11V96.97l-56.109 32.11z" mask="url(#b)"/>
            <path fill="#FFF" d="M96.241 59.07a6.376 6.376 0 1 1-12.753 0 6.376 6.376 0 0 1 12.753 0" mask="url(#b)"/>
            <path fill="#FFF" d="M96.506 59.072a6.656 6.656 0 1 1-13.313 0 6.656 6.656 0 0 1 13.313 0" mask="url(#b)"/>
            <path stroke="#35A849" stroke-linecap="round" stroke-linejoin="round" stroke-width="3" d="M96.506 59.072a6.656 6.656 0 1 1-13.313 0 6.656 6.656 0 0 1 13.313 0z" mask="url(#b)"/>
            <path fill="#35A849" d="M91.458 56.45a12.612 12.612 0 0 0-1.735-.08c-.532.013-1.106.03-1.621.174-.58.165-1.067.533-1.275 1.112-.18.5-.072 1.092.328 1.457.463.42 1.144.413 1.73.482l1.692.198.422.05.235.027c.013.002.169.024.05.005.047.007.094.014.14.026.023.006.046.01.069.017.073.023.088.028.046.014.002.006-.068-.074-.068-.074a1.368 1.368 0 0 0-.013-.048c.019.072.023.084.013.037-.024-.005.039-.187-.008-.01-.006.025-.053.11-.008.025-.062.119-.036.051-.017.026-.1.138.02 0-.055.052-.05.035-.104.062-.156.092-.009.005-.119.052-.037.019a5.69 5.69 0 0 1-3.757.047c-.354-.115-.753.135-.848.482-.103.375.126.733.482.849 1.1.358 2.262.425 3.4.237 1.014-.167 2.45-.63 2.375-1.911-.04-.666-.56-1.107-1.191-1.21-.572-.095-1.157-.141-1.733-.21l-.846-.098c-.157-.019-.312-.038-.47-.055l-.188-.022c-.286-.033.103.029-.127-.017l-.142-.031-.07-.02c.044.02.046.019.003-.004l-.03-.017c.03.012.05.032.065.062.019.024.023.13.002.001.03.182.005.007.005.007l.004-.061c-.01.071-.008.082.003.032.037-.11-.031.149.015-.039l.033-.053c-.047.054-.043.052.01-.007.004-.002.085-.064.029-.025 0 0 .178-.095.108-.066.119-.05.25-.073.375-.099.14-.028.083-.014.05-.009.08-.011.163-.017.245-.024a12.5 12.5 0 0 1 2.466.04c.37.041.69-.348.69-.69 0-.409-.319-.648-.69-.69" mask="url(#b)"/>
            <path fill="#35A849" d="M88.728 55.435l-.157 7.13c-.009.392.323.663.69.69.333.023.589-.108.838-.315.287-.238.246-.73 0-.976-.284-.283-.688-.238-.975 0l.137-.09.69.69c.051-2.376.104-4.752.157-7.13.02-.887-1.36-.887-1.38 0" mask="url(#b)"/>
        </g>
    </g>
</svg>
