<svg xmlns="http://www.w3.org/2000/svg" width="114" height="130" viewBox="0 0 114 130">
    <g fill="none" fill-rule="evenodd">
        <path fill="#35A849" d="M3.243 96.118l54.185 30.978 54.185-30.978V34.175L57.428 3.196 3.243 34.175v61.943zm54.185 33.155L1.407 97.213V33.08L57.428 1.02l56.022 32.06v64.134l-56.022 32.06z"/>
        <path stroke="#35A849" stroke-linecap="round" stroke-linejoin="round" d="M3.243 96.118l54.185 30.978 54.185-30.978V34.175L57.428 3.196 3.243 34.175v61.943zm54.185 33.155L1.407 97.213V33.08L57.428 1.02l56.022 32.06v64.134l-56.022 32.06z"/>
        <path fill="#35A849" d="M49.304 39.687a4.959 4.959 0 0 1-3.53-1.462 4.998 4.998 0 0 1 0-7.058 4.959 4.959 0 0 1 3.53-1.462c1.333 0 2.587.519 3.53 1.462a4.997 4.997 0 0 1 0 7.058 4.96 4.96 0 0 1-3.53 1.462M69.615 42.12a4.963 4.963 0 0 1 3.174-2.127 4.998 4.998 0 0 1 5.874 3.913 4.958 4.958 0 0 1-.74 3.747 4.957 4.957 0 0 1-3.172 2.128 4.997 4.997 0 0 1-5.875-3.912 4.959 4.959 0 0 1 .74-3.749M56.232 63.839a4.956 4.956 0 0 1 1.441 3.537 4.998 4.998 0 0 1-5.02 4.963 4.963 4.963 0 0 1-3.52-1.482 4.959 4.959 0 0 1-1.442-3.538 4.998 4.998 0 0 1 5.02-4.963 4.956 4.956 0 0 1 3.52 1.483M71.984 60.093a.777.777 0 0 1-.027-.015l.023.022.004-.007z"/>
        <path fill="#35A849" d="M67.897 53.638c-1.665-3.227-1.246-6.739 1.245-10.438 2.368-3.519 3.22-7.068 2.532-10.55-1.13-5.707-6.042-9.035-6.25-9.174l-1.94 2.904-.029.042c.019.012 1.588 1.086 2.945 2.951.281.387.553.807.8 1.26 1.823 3.337 1.487 6.899-.997 10.588-2.433 3.615-3.317 7.222-2.624 10.722.71 3.593 2.932 6.156 4.415 7.52 1.863-.748 3.12-1.76 3.27-1.884-.428-.315-2.22-1.716-3.367-3.941M71.899 60.018a.512.512 0 0 1-.015.014l.074.045-.06-.059z"/>
        <path fill="#35A849" d="M73.675 60.28l-.022-.022-.073-.045c-.142.134-2.069 2.02-3.872 2.9-1.265.616-2.833 1.123-4.567 1.114l-.022-.001c-2.572-.02-5.033-1.215-7.317-3.548-3.048-3.114-6.402-4.708-9.97-4.738h-.03c-5.53-.032-9.45 3.78-9.614 3.943l2.49 2.52c.03-.03 3.024-2.943 7.103-2.92h.022c2.59.021 5.103 1.257 7.467 3.673 2.967 3.032 6.271 4.584 9.82 4.613h.03c5.802.033 10.787-4.875 10.965-5.052l-2.41-2.437zM64.054 32.438a13.912 13.912 0 0 0-2.005-2.198c-.21-.18-.53-.436-.79-.574-.01.32-.123 2.74-1.416 5.067-1.75 3.152-4.873 4.75-9.285 4.75h-.2c-4.192 0-7.582 1.258-10.077 3.74-2.125 2.114-3.168 4.715-3.68 6.774l-.016-.006c-.037.175-.077.377-.12.6a15.986 15.986 0 0 0-.354 2.784c-.053 1.083.01 2.214.33 3.175 0 0 1.676-1.58 3.304-2.083 0 0-.12-.508-.03-1.848.17-1.51.792-4.623 3.065-6.885 1.807-1.797 4.356-2.708 7.58-2.708h.087c4.358.024 7.85-1.243 10.38-3.76 2.15-2.14 3.026-4.524 3.473-6.476-.081-.12-.163-.238-.246-.352M30.177 86.748v1.56h-5.73V81.17h5.598v1.56h-3.6v1.204h3.172v1.509h-3.171v1.305zM34.695 86.697c.612 0 1.103-.174 1.473-.52.37-.347.556-.826.556-1.438 0-.611-.185-1.09-.556-1.438-.37-.346-.861-.52-1.473-.52H33.42v3.916h1.275zM31.4 81.17h3.376c.78 0 1.474.146 2.08.438a3.309 3.309 0 0 1 1.407 1.245c.332.537.5 1.166.5 1.886s-.168 1.35-.5 1.887a3.307 3.307 0 0 1-1.408 1.244c-.605.292-1.298.438-2.08.438h-3.375V81.17zM40.747 87.584c-.588-.577-.882-1.397-.882-2.458V81.17h2.019v3.896c0 1.142.452 1.713 1.356 1.713.897 0 1.347-.571 1.347-1.713V81.17h1.988v3.956c0 1.061-.295 1.88-.883 2.458-.587.578-1.412.867-2.473.867-1.06 0-1.884-.29-2.472-.867M49.588 87.977a3.545 3.545 0 0 1-1.402-1.32c-.34-.565-.51-1.204-.51-1.918s.17-1.353.51-1.917a3.54 3.54 0 0 1 1.402-1.32c.594-.317 1.265-.475 2.013-.475.653 0 1.24.116 1.764.347.524.232.959.565 1.306 1l-1.285 1.161c-.463-.557-1.023-.835-1.683-.835-.387 0-.732.085-1.035.254a1.77 1.77 0 0 0-.703.72c-.167.309-.25.664-.25 1.065 0 .401.083.756.25 1.065.166.31.401.55.703.72.303.17.648.255 1.035.255.66 0 1.22-.279 1.683-.837l1.285 1.163a3.398 3.398 0 0 1-1.306 1c-.523.23-1.111.346-1.764.346-.748 0-1.419-.158-2.013-.474M59.738 85.433l-.917-2.285-.918 2.285h1.835zm.592 1.489H57.31l-.56 1.386h-2.06l3.15-7.138h1.99l3.16 7.138h-2.1l-.561-1.386zM65.108 87.977a3.545 3.545 0 0 1-1.402-1.32c-.34-.565-.51-1.204-.51-1.918s.17-1.353.51-1.917a3.54 3.54 0 0 1 1.402-1.32c.594-.317 1.265-.475 2.013-.475.652 0 1.24.116 1.764.347.524.232.959.565 1.306 1l-1.285 1.161c-.463-.557-1.024-.835-1.683-.835-.388 0-.732.085-1.035.254a1.77 1.77 0 0 0-.703.72c-.167.309-.25.664-.25 1.065 0 .401.083.756.25 1.065.166.31.4.55.703.72.303.17.647.255 1.035.255.66 0 1.22-.279 1.683-.837l1.285 1.163a3.398 3.398 0 0 1-1.306 1c-.523.23-1.112.346-1.764.346-.748 0-1.419-.158-2.013-.474M71.19 88.308h2.02V81.17h-2.02zM78.715 79.039h1.938l-1.917 1.55h-1.387l1.366-1.55zm.612 7.485c.293-.17.524-.41.694-.72.17-.308.254-.664.254-1.065a2.18 2.18 0 0 0-.254-1.066 1.832 1.832 0 0 0-.694-.718 1.91 1.91 0 0 0-.979-.256c-.36 0-.686.085-.978.256-.293.17-.524.409-.694.718a2.18 2.18 0 0 0-.255 1.066c0 .401.085.757.255 1.066.17.31.401.548.694.719.292.17.618.255.978.255s.686-.085.98-.255zm-3.013 1.448a3.595 3.595 0 0 1-1.417-1.326 3.592 3.592 0 0 1-.515-1.907c0-.707.171-1.342.515-1.907a3.595 3.595 0 0 1 1.417-1.325c.602-.32 1.28-.48 2.034-.48.755 0 1.433.16 2.035.48.601.32 1.074.76 1.417 1.325.343.565.515 1.2.515 1.907 0 .708-.172 1.343-.515 1.907a3.595 3.595 0 0 1-1.417 1.326c-.602.32-1.28.479-2.035.479-.754 0-1.432-.16-2.034-.48zM90.268 81.17v7.138h-1.662l-3.15-3.803v3.803h-1.979V81.17h1.662l3.152 3.804V81.17zM25.706 93.139v1.57h3.15v1.56h-3.15v2.447h-2.019v-7.138h5.598v1.56zM30.336 98.716h2.02V91.58h-2.02zM40.685 91.579v7.137h-1.662l-3.151-3.803v3.803h-1.978V91.58h1.662l3.151 3.803v-3.803zM46.406 95.841l-.918-2.284-.918 2.284h1.836zm.591 1.49H43.98l-.561 1.385h-2.06l3.151-7.137h1.989l3.16 7.137h-2.1l-.56-1.386zM57.123 91.579v7.137H55.46l-3.15-3.803v3.803H50.33V91.58h1.663l3.151 3.803v-3.803zM60.198 98.385a3.545 3.545 0 0 1-1.402-1.32c-.34-.564-.51-1.204-.51-1.917 0-.714.17-1.354.51-1.917a3.54 3.54 0 0 1 1.402-1.321c.594-.317 1.265-.475 2.013-.475.652 0 1.24.116 1.764.348.524.231.958.564 1.306.999l-1.286 1.162c-.462-.557-1.023-.836-1.682-.836-.388 0-.732.085-1.035.255a1.77 1.77 0 0 0-.703.72c-.167.308-.25.663-.25 1.065 0 .4.083.756.25 1.065.166.31.4.549.703.719.303.17.647.255 1.035.255.66 0 1.22-.279 1.682-.836l1.286 1.162a3.398 3.398 0 0 1-1.306 1c-.523.23-1.112.346-1.764.346-.748 0-1.419-.158-2.013-.474M66.28 98.716h2.02V91.58h-2.02zM75.569 97.156v1.56h-5.73V91.58h5.597v1.56h-3.599v1.203h3.17v1.51h-3.17v1.304zM80.872 93.445c-.211-.184-.523-.276-.938-.276h-1.122v2.09h1.122c.415 0 .727-.09.938-.27.21-.18.316-.436.316-.77 0-.332-.105-.59-.316-.774zm-.958 3.375h-1.102v1.896h-2.019v-7.138h3.263c.646 0 1.207.108 1.682.322.476.214.844.52 1.102.918.258.397.387.865.387 1.402 0 .516-.12.967-.361 1.351a2.45 2.45 0 0 1-1.036.902l1.54 2.243h-2.162l-1.294-1.896zM88.631 95.841l-.918-2.284-.917 2.284h1.835zm.592 1.49h-3.019l-.56 1.385h-2.06l3.15-7.137h1.989l3.161 7.137h-2.1l-.561-1.386z"/>
    </g>
</svg>
