<svg xmlns="http://www.w3.org/2000/svg" xmlns:xlink="http://www.w3.org/1999/xlink" width="101" height="100" viewBox="0 0 101 100">
    <defs>
        <path id="a" d="M0 .16h100.3v98.45H0z"/>
        <linearGradient id="b" x1="50%" x2="50%" y1="0%" y2="100%">
            <stop offset="0%" stop-color="#00EBCB"/>
            <stop offset="100%" stop-color="#00D39C"/>
        </linearGradient>
    </defs>
    <g fill="none" fill-rule="evenodd">
        <g transform="translate(0 .403)">
            <mask id="c" fill="#fff">
                <use xlink:href="#a"/>
            </mask>
            <path fill="url(#b)" d="M74.598 98.61H25.702C11.507 98.61 0 87.103 0 72.908V25.862C0 11.668 11.507.16 25.702.16h48.896C88.793.16 100.3 11.668 100.3 25.862v47.046c0 14.195-11.507 25.702-25.702 25.702" mask="url(#c)"/>
        </g>
        <path fill="#FFF" d="M54.124 29.382a22.3 22.3 0 0 1 .31-1.858c.296-1.12.608-2.236.95-3.344l.06-.203c.118-.288.26-.541.438-.7 1.19-1.062 1.53-.135 1.595.9.007.108.028.206.055.298-.01.047-.019.095-.03.142-.439 2.036-1.063 4.03-1.804 5.975a59.72 59.72 0 0 1-1.803 4.2c-.027-1.808.008-3.617.229-5.41m-4.251 25.014l-.017-.015.03-.252c-.003.09-.01.178-.013.267m-4.499 13.287c-.499 2.34-1.066 4.736-2.254 6.837-1.404 2.481-4.712 5.32-6.748 1.804-3.232-5.58 3.176-12.261 6.52-16.052 1.471-1.668 2.97-3.31 4.481-4.942-.512 4.142-1.129 8.27-1.999 12.353M68.842 39.72c-.423-.879-1.999-.708-2.165.283-.394 2.354-2.633 2.824-4.72 2.89.166-.242.326-.487.478-.737.804-1.324 1.058-3.208-.359-4.241-1.255-.917-3-.334-3.823.855-.482.696-.712 1.592-.702 2.488a46.57 46.57 0 0 1-2.47 2.728c-.027.023-.055.04-.082.067-.316.311-.627.627-.941.94.015-1.266.014-2.533-.004-3.8 1.35-1.953 2.513-4.058 3.497-6.217 2.251-4.11 4.593-9.652 3.856-14.399a6.885 6.885 0 0 0-.355-1.34c-.021-.153-.037-.307-.063-.46-.243-1.4-.98-3.06-2.54-3.352-2.012-.377-3.233 1.795-4.1 3.24-2.507 4.183-3.666 9.014-4.39 13.791-.518 3.42-.89 6.862-1.238 10.307-3.36 3.37-9.314 8.288-13.16 3.586-.446-.547-1.574-.426-1.86.24-1.412 3.282 1.35 6.611 4.793 6.61 3.62 0 7.02-2.8 9.72-5.4-.051.505-.103 1.01-.157 1.516-.062.587-.126 1.173-.19 1.759a120.226 120.226 0 0 0-7.34 7.144c-4.198 4.456-8.864 9.46-9.528 15.837-.57 5.49 2.596 11.392 8.862 9.906 5.358-1.271 8.292-5.54 9.786-10.461 2.034-5.916 3.2-12.38 3.833-18.288.187-1.749.32-3.497.414-5.245 2.213-1.274 4.068-3.327 6.174-4.758.05.014.104.024.158.032.85.36 1.8.539 2.69.632.589.062 1.19.055 1.78-.017a7.634 7.634 0 0 0 3.505-1.115c.454-.28.614-.67.582-1.043.69-1.016.84-2.357.06-3.978"/>
    </g>
</svg>
