<svg xmlns="http://www.w3.org/2000/svg" xmlns:xlink="http://www.w3.org/1999/xlink" width="174" height="26" viewBox="0 0 174 26">
    <defs>
        <path id="a" d="M0 25.071h173.972V.096H0z"/>
    </defs>
    <g fill="none" fill-rule="evenodd">
        <path fill="#FFF" d="M34.505 15.056l-6.483-8.037H26V19.98h2.495v-8.74L35.45 20v-.019H37V7h-2.495zM38 20h9v-2.414h-6.75V14.65h6.51v-2.284h-6.51v-2.99H47V7h-9z"/>
        <g>
            <path fill="#FFF" d="M57.317 13.637c0 2.1-1.078 3.378-2.972 3.378-1.895 0-3.147-1.173-3.147-3.378V6.62h-2.277v7.017c0 3.693 2.486 5.477 5.406 5.477 3.06 0 5.268-1.854 5.268-5.477V6.62h-2.278v7.017zM64.15 12.675v-3.92h3.494c1.442 0 2.086.98 2.086 1.96s-.626 1.96-2.086 1.96h-3.495zm7.874-2.012c0-2.118-1.512-4.043-4.38-4.06-1.93 0-3.86-.018-5.79-.018v12.267h2.295v-4.095h2.208l3.547 4.095h2.729v-.158l-3.686-4.182c2.313-.472 3.077-2.17 3.077-3.85zM79.291 17.015c-2.868 0-3.946-2.153-3.998-4.165-.052-2.065 1.13-4.392 3.998-4.392 2.868 0 4.016 2.31 3.98 4.374-.034 2.013-1.112 4.183-3.98 4.183m0-10.657c-4.207 0-6.258 3.237-6.258 6.457 0 3.22 1.981 6.317 6.258 6.317 4.276 0 6.206-3.167 6.24-6.335.036-3.202-2.05-6.439-6.24-6.439M10.95 11.38l-7.436-4.4.004-.002-.004-.003 7.114-4.132.148-.086 7.38 4.356-7.205 4.266zm8.226 4.894l-6.223-3.7 6.236-3.699-.013 7.399zm-8.442 6.11l-7.239-4.218 7.456-4.404 7.257 4.31-7.474 4.311zM2.344 8.662l6.608 3.912-6.664 3.94.056-7.852zM.027 6.309L0 18.804l10.707 6.267 10.761-6.239.037-12.479L10.775.096.028 6.309zM87.479 18.87h.939v-5.548h7.006v-.892h-7.006V7.548h7.249v-.945h-8.188z"/>
            <mask id="b" fill="#fff">
                <use xlink:href="#a"/>
            </mask>
            <path fill="#FFF" d="M97.927 18.852h.921V6.603h-.921zM110.13 16.735l-8.187-10.132h-.4v12.249h.938V8.738l8.206 10.114h.365V6.603h-.922zM115.207 14.967l3.268-7.454 3.268 7.454h-6.536zm2.764-8.364l-5.459 12.249h1.009l1.32-3.01h7.267l1.339 3.01h1.008l-5.458-12.25h-1.026zM134.625 16.735l-8.188-10.132h-.4v12.249h.939V8.738l8.205 10.114h.365V6.603h-.921zM137.789 7.478h7.318l-7.736 10.971v.403h9.231v-.927h-7.84l7.84-10.99v-.332h-8.813zM149.749 14.967l3.268-7.454 3.268 7.454h-6.536zm2.764-8.364l-5.459 12.249h1.009l1.32-3.01h7.267l1.339 3.01h1.008l-5.458-12.25h-1.026zM164.612 12.098c-2.051-.386-3.72-.753-3.72-2.31 0-1.96 2.26-2.485 3.686-2.485 1.373.017 2.798.227 3.685 1.662l.765-.455c-1.2-1.802-2.712-2.082-4.45-2.082-2 0-4.677.805-4.625 3.395 0 2.257 2.278 2.712 4.503 3.15 2 .384 4.016.787 3.998 2.624 0 2.17-2.381 2.59-3.876 2.59s-3.408-.735-4.155-2.222l-.835.42c.94 1.872 3.095 2.66 4.99 2.66 2.034 0 4.798-.666 4.815-3.43 0-2.643-2.434-3.063-4.78-3.517M170.117 17.971h.736v1.905h.157V17.97h.735v-.14h-1.628zM173.78 17.828l-.77 1.194-.78-1.194h-.185v2.048h.157v-1.82l.785 1.2h.052l.779-1.2v1.82h.154v-2.048z" mask="url(#b)"/>
        </g>
    </g>
</svg>
