<svg xmlns="http://www.w3.org/2000/svg" width="183" height="60" viewBox="0 0 183 60">
    <g fill="none" fill-rule="nonzero">
        <path fill="#1C3664" d="M48.758 45.45c0 .48-.027.842-.087 1.098-.06.257-.137.436-.235.542-.093.106-.235.195-.421.279-.186.077-.405.15-.656.212a6.668 6.668 0 0 1-.821.14c-.29.032-.59.05-.886.05-.804 0-1.499-.107-2.084-.313a3.46 3.46 0 0 1-1.46-.955c-.382-.435-.667-.976-.847-1.628-.18-.653-.274-1.429-.274-2.322v-7.47h-1.711c-.203 0-.361-.129-.465-.385-.11-.257-.164-.68-.164-1.283 0-.313.016-.58.044-.799.027-.217.065-.39.12-.518a.601.601 0 0 1 .197-.268.487.487 0 0 1 .285-.084h1.695v-3.252a.49.49 0 0 1 .087-.29c.06-.09.17-.162.323-.223.153-.062.361-.1.623-.128.263-.029.585-.045.968-.045.4 0 .727.016.99.045.257.027.465.066.613.128a.71.71 0 0 1 .323.223.458.458 0 0 1 .093.29v3.252h3.111c.104 0 .197.029.28.084a.615.615 0 0 1 .202.268c.05.128.093.301.12.52.028.217.038.484.038.798 0 .602-.055 1.025-.158 1.282-.11.257-.263.386-.466.386h-3.127v6.85c0 .794.125 1.39.371 1.786.246.402.684.597 1.313.597.213 0 .404-.017.58-.056.169-.039.322-.078.453-.128.132-.05.246-.096.34-.134a.604.604 0 0 1 .245-.056c.066 0 .126.017.187.056.054.04.104.118.136.23.028.116.06.272.088.468.027.195.037.446.037.753zm5.839 1.434a.448.448 0 0 1-.093.29.71.71 0 0 1-.328.2 2.8 2.8 0 0 1-.618.124c-.257.028-.58.044-.98.044-.393 0-.721-.016-.973-.044a2.743 2.743 0 0 1-.618-.123.656.656 0 0 1-.328-.201.454.454 0 0 1-.099-.29V32.338c0-.111.033-.206.099-.284.06-.084.17-.156.328-.212.153-.061.361-.106.618-.14.252-.033.58-.05.974-.05.399 0 .722.017.979.05.256.034.46.079.618.14a.722.722 0 0 1 .328.212.423.423 0 0 1 .093.284v14.546zm.306-19.517c0 .832-.164 1.4-.498 1.719-.328.318-.945.474-1.842.474-.909 0-1.515-.15-1.833-.457-.317-.308-.475-.854-.475-1.652 0-.826.164-1.4.492-1.724.323-.323.94-.485 1.848-.485.897 0 1.51.156 1.827.468.323.313.481.865.481 1.657zm13.424 17.196c0 .284-.01.524-.028.714a5.67 5.67 0 0 1-.06.48c-.027.133-.06.24-.098.318-.038.083-.12.19-.246.312a3.72 3.72 0 0 1-.662.457 6.2 6.2 0 0 1-1.056.48 8.139 8.139 0 0 1-1.29.346c-.465.09-.94.129-1.433.129-1.1 0-2.073-.173-2.926-.52a5.556 5.556 0 0 1-2.138-1.544c-.575-.681-1.012-1.513-1.302-2.494-.295-.982-.443-2.104-.443-3.365 0-1.462.18-2.722.536-3.788.361-1.06.859-1.942 1.499-2.639a5.925 5.925 0 0 1 2.275-1.551c.875-.34 1.837-.508 2.882-.508.432 0 .848.04 1.258.117.416.073.798.179 1.154.307.36.134.678.28.962.44.285.169.482.308.602.425.115.123.203.223.246.307.049.078.088.184.115.318.027.128.05.29.065.48.016.19.022.424.022.698 0 .63-.054 1.076-.158 1.332-.11.252-.247.38-.416.38-.186 0-.377-.073-.58-.229a15.421 15.421 0 0 0-.722-.502 5.019 5.019 0 0 0-.99-.507c-.388-.157-.847-.229-1.378-.229-1.05 0-1.848.407-2.406 1.233-.553.82-.831 2.031-.831 3.621 0 .781.066 1.473.208 2.076.137.596.344 1.098.618 1.5.268.408.612.709 1.022.91.41.2.891.301 1.433.301.558 0 1.034-.084 1.438-.25.4-.169.75-.358 1.045-.564.3-.207.552-.397.755-.564.202-.173.377-.257.514-.257.098 0 .174.028.24.084.066.056.115.156.154.301.038.145.066.335.087.564.022.228.033.524.033.88zM83.413 46.9a.517.517 0 0 1-.087.29c-.06.079-.17.146-.323.196-.153.05-.366.084-.634.111-.263.028-.613.045-1.039.045-.438 0-.793-.011-1.066-.034a3.977 3.977 0 0 1-.673-.106 1.015 1.015 0 0 1-.41-.206c-.093-.089-.18-.2-.252-.34l-4.763-7.683v7.71a.448.448 0 0 1-.093.29.715.715 0 0 1-.328.202 2.783 2.783 0 0 1-.619.122c-.256.028-.58.044-.978.044-.394 0-.722-.016-.974-.044a2.74 2.74 0 0 1-.617-.122.658.658 0 0 1-.329-.201.453.453 0 0 1-.098-.29V25.392a.48.48 0 0 1 .098-.296c.06-.09.17-.162.329-.218.153-.061.36-.106.617-.14.251-.033.58-.05.974-.05.399 0 .722.017.978.05.257.034.46.079.619.14a.687.687 0 0 1 .328.218c.066.09.093.184.093.296V38.19l4.233-5.802a1.62 1.62 0 0 1 .29-.346c.103-.095.246-.173.42-.229.176-.056.4-.095.657-.123a9.96 9.96 0 0 1 1-.039c.4 0 .734.012 1.007.04.268.027.487.066.656.122.164.056.28.123.345.207.06.078.093.183.093.3 0 .162-.038.341-.12.525-.077.184-.197.38-.361.586l-4.178 4.837 4.834 7.638c.131.218.224.401.285.564.053.156.086.301.086.43zm13.66-7.727v-.658c0-1.021-.127-1.97-.383-2.84-.257-.876-.657-1.63-1.203-2.265-.542-.636-1.241-1.138-2.09-1.495-.847-.363-1.87-.541-3.068-.541-1.131 0-2.149.19-3.051.574a6.23 6.23 0 0 0-2.303 1.657c-.628.725-1.11 1.606-1.438 2.65-.334 1.038-.498 2.21-.498 3.503 0 1.362.159 2.55.47 3.566.318 1.01.794 1.852 1.434 2.516.645.664 1.444 1.161 2.396 1.484.956.33 2.072.492 3.34.492.706 0 1.368-.045 1.991-.14a15.78 15.78 0 0 0 1.646-.323 9.767 9.767 0 0 0 1.187-.386c.312-.128.498-.234.569-.312a.947.947 0 0 0 .263-.536c.021-.122.038-.267.048-.434.012-.168.018-.374.018-.615a7.84 7.84 0 0 0-.023-.675 1.512 1.512 0 0 0-.087-.418.425.425 0 0 0-.164-.207.441.441 0 0 0-.242-.056c-.158 0-.366.05-.623.156-.256.1-.579.218-.967.34-.39.129-.853.24-1.39.347-.53.1-1.148.156-1.853.156-.695 0-1.29-.095-1.788-.279a3.022 3.022 0 0 1-1.22-.81 3.368 3.368 0 0 1-.69-1.293 6.207 6.207 0 0 1-.213-1.69h8.701c.383 0 .684-.118.902-.358.219-.24.328-.613.328-1.11zm-3.91-1.177H87.14c.022-.513.098-.999.23-1.45.136-.452.328-.843.58-1.178.251-.329.563-.597.945-.792.378-.195.82-.29 1.335-.29 1.017 0 1.766.328 2.253.987.487.659.711 1.568.679 2.723zm14.352 7.454c0 .48-.027.842-.087 1.098-.06.257-.137.436-.235.542-.093.106-.235.195-.421.279-.186.077-.404.15-.656.212a6.673 6.673 0 0 1-.82.14c-.29.032-.591.05-.886.05-.804 0-1.5-.107-2.084-.313a3.464 3.464 0 0 1-1.46-.955c-.383-.435-.667-.976-.848-1.628-.18-.653-.274-1.429-.274-2.322v-7.47h-1.71c-.204 0-.362-.129-.466-.385-.109-.257-.165-.68-.165-1.283 0-.313.018-.58.044-.799.028-.217.066-.39.12-.518a.604.604 0 0 1 .197-.268.486.486 0 0 1 .285-.084h1.695v-3.252a.49.49 0 0 1 .088-.29c.06-.09.169-.162.322-.223.153-.062.361-.1.624-.128.262-.029.585-.045.968-.045.399 0 .727.016.989.045.257.027.465.066.613.128a.71.71 0 0 1 .322.223.458.458 0 0 1 .094.29v3.252h3.111c.104 0 .197.029.28.084a.618.618 0 0 1 .202.268c.05.128.094.301.12.52.028.217.039.484.039.798 0 .602-.055 1.025-.159 1.282-.109.257-.263.386-.465.386h-3.128v6.85c0 .794.126 1.39.372 1.786.246.402.683.597 1.312.597.214 0 .404-.017.58-.056.169-.039.322-.078.453-.128.132-.05.247-.096.34-.134a.605.605 0 0 1 .246-.056c.066 0 .126.017.186.056a.42.42 0 0 1 .136.23c.028.116.06.272.088.468.028.195.038.446.038.753zm16.381-6.004c0 1.244-.16 2.378-.48 3.404a7.215 7.215 0 0 1-1.46 2.644 6.468 6.468 0 0 1-2.45 1.719c-.985.402-2.134.603-3.446.603-1.269 0-2.375-.176-3.314-.536-.942-.36-1.723-.888-2.34-1.573-.618-.687-1.077-1.53-1.38-2.533-.299-.999-.448-2.143-.448-3.431 0-1.245.161-2.38.487-3.409.325-1.028.815-1.91 1.466-2.645.654-.738 1.467-1.303 2.444-1.707.98-.405 2.121-.609 3.44-.609 1.28 0 2.39.176 3.33.53.942.355 1.716.878 2.33 1.563.616.687 1.076 1.533 1.373 2.533.299 1.002.448 2.153.448 3.447zm-4.15.168c0-.72-.058-1.384-.17-1.986-.112-.608-.301-1.133-.568-1.58a2.87 2.87 0 0 0-1.066-1.043c-.444-.248-1.001-.379-1.674-.379-.595 0-1.121.111-1.57.335a2.85 2.85 0 0 0-1.104.982c-.29.429-.506.948-.651 1.551-.145.607-.213 1.295-.213 2.07 0 .72.056 1.378.175 1.986.116.603.304 1.128.569 1.58.26.446.617.791 1.066 1.037.448.245 1 .368 1.662.368.613 0 1.138-.117 1.591-.34.45-.222.817-.546 1.105-.971.286-.423.5-.937.64-1.546.139-.602.208-1.295.208-2.064zm20.169-.23c0 1.295-.137 2.467-.411 3.505-.274 1.043-.667 1.925-1.192 2.656a5.341 5.341 0 0 1-1.953 1.685c-.782.39-1.673.586-2.68.586-.416 0-.798-.04-1.143-.123a4.26 4.26 0 0 1-1.011-.374 6.388 6.388 0 0 1-.97-.63 11.24 11.24 0 0 1-.994-.882v6.862a.465.465 0 0 1-.093.296c-.066.09-.175.162-.328.223-.16.061-.362.106-.618.14a7.99 7.99 0 0 1-.979.044c-.394 0-.722-.011-.974-.044a2.625 2.625 0 0 1-.617-.14c-.159-.061-.269-.134-.33-.223a.47.47 0 0 1-.097-.296V32.305a.5.5 0 0 1 .081-.284.596.596 0 0 1 .28-.207c.13-.056.311-.095.53-.123.219-.028.492-.039.826-.039.317 0 .591.012.81.04.218.027.392.066.524.122.137.056.23.123.285.207.05.078.077.178.077.284v1.719c.416-.436.826-.82 1.225-1.155.404-.33.81-.608 1.225-.831a5.73 5.73 0 0 1 1.29-.503 6.117 6.117 0 0 1 1.422-.16c1.045 0 1.936.211 2.674.63a5.054 5.054 0 0 1 1.8 1.724c.465.73.803 1.579 1.017 2.55.214.97.324 2.001.324 3.106zm-4.202.291c0-.62-.043-1.216-.13-1.785a5.403 5.403 0 0 0-.466-1.529 2.866 2.866 0 0 0-.87-1.071c-.354-.268-.803-.402-1.333-.402-.268 0-.53.04-.793.123a3.18 3.18 0 0 0-.804.402 5.443 5.443 0 0 0-.841.72c-.285.289-.591.658-.915 1.093v4.803c.57.73 1.111 1.294 1.62 1.69.514.402 1.05.598 1.602.598.525 0 .973-.134 1.34-.408.366-.273.666-.63.902-1.071.235-.44.41-.937.525-1.496.11-.551.163-1.109.163-1.667zm20.764-.229c0 1.244-.164 2.377-.48 3.404-.324 1.02-.81 1.908-1.462 2.644-.65.743-1.465 1.317-2.449 1.719-.985.402-2.133.603-3.445.603-1.27 0-2.374-.179-3.315-.536-.94-.362-1.722-.887-2.34-1.573-.618-.687-1.077-1.53-1.379-2.533-.3-.999-.448-2.143-.448-3.431 0-1.245.164-2.377.487-3.409.328-1.027.815-1.908 1.466-2.645a6.523 6.523 0 0 1 2.444-1.707c.979-.408 2.121-.609 3.44-.609 1.279 0 2.389.179 3.33.53.94.358 1.717.876 2.33 1.563.618.686 1.072 1.534 1.372 2.533.296 1.004.449 2.153.449 3.447zm-4.151.168c0-.72-.055-1.384-.17-1.986a4.613 4.613 0 0 0-.568-1.58 2.835 2.835 0 0 0-1.067-1.043c-.442-.25-1-.379-1.672-.379-.596 0-1.121.111-1.57.335-.449.223-.815.552-1.105.982-.289.43-.503.949-.65 1.551a9.094 9.094 0 0 0-.215 2.07c0 .72.055 1.378.175 1.986.116.603.307 1.127.57 1.58.262.446.618.791 1.066 1.037.449.245 1.001.368 1.662.368.613 0 1.138-.117 1.591-.34.45-.223.815-.547 1.105-.971.284-.424.498-.937.64-1.546a9.376 9.376 0 0 0 .208-2.064zm10.263 7.27a.45.45 0 0 1-.093.29.709.709 0 0 1-.328.2 2.79 2.79 0 0 1-.618.124 9.18 9.18 0 0 1-.979.044c-.393 0-.722-.016-.974-.044a2.75 2.75 0 0 1-.617-.123.663.663 0 0 1-.33-.201.455.455 0 0 1-.097-.29V25.393c0-.112.033-.207.098-.296.06-.09.17-.162.329-.218.154-.061.36-.106.617-.14.252-.033.58-.05.974-.05.4 0 .722.017.979.05.257.034.46.079.618.14a.686.686 0 0 1 .328.218c.066.09.093.184.093.296v21.49zm6.558 0a.44.44 0 0 1-.093.29.716.716 0 0 1-.329.2c-.16.055-.362.096-.618.124-.256.027-.58.044-.978.044a9.44 9.44 0 0 1-.975-.044 2.997 2.997 0 0 1-.617-.123c-.158-.053-.268-.123-.329-.201a.458.458 0 0 1-.098-.29V32.338c0-.111.036-.204.098-.284a.734.734 0 0 1 .329-.212c.155-.058.362-.106.617-.14.253-.032.58-.05.975-.05.399 0 .722.017.978.05.257.033.459.08.618.14.153.057.261.13.329.212.064.079.093.173.093.284v14.546zm.305-19.517c0 .832-.165 1.4-.497 1.719-.33.317-.946.474-1.844.474-.907 0-1.514-.15-1.831-.457-.318-.307-.476-.854-.476-1.652 0-.826.165-1.399.492-1.724.323-.322.94-.485 1.848-.485.897 0 1.508.158 1.826.468.323.314.482.865.482 1.657zm12.67 15.4c0 .83-.155 1.555-.46 2.192a4.315 4.315 0 0 1-1.285 1.584c-.556.425-1.214.742-1.974.954a9.14 9.14 0 0 1-2.466.319 9.366 9.366 0 0 1-1.531-.123 9.018 9.018 0 0 1-1.302-.307 6.687 6.687 0 0 1-.962-.385c-.258-.132-.446-.254-.564-.368-.118-.114-.21-.296-.273-.542-.064-.244-.094-.608-.094-1.087 0-.312.012-.57.033-.76a2.11 2.11 0 0 1 .093-.457.43.43 0 0 1 .165-.228.458.458 0 0 1 .241-.056c.114 0 .288.07.519.207.228.135.515.283.858.446.34.16.74.315 1.192.457.454.143.968.212 1.543.212.367 0 .69-.036.973-.112.28-.074.524-.187.733-.329a1.35 1.35 0 0 0 .476-.541c.105-.217.159-.469.159-.748 0-.329-.1-.608-.296-.842a2.615 2.615 0 0 0-.788-.614 8.72 8.72 0 0 0-1.104-.49 26.08 26.08 0 0 1-1.263-.509 11.434 11.434 0 0 1-1.269-.636 4.816 4.816 0 0 1-1.105-.882 4.013 4.013 0 0 1-.781-1.26c-.197-.491-.296-1.077-.296-1.763 0-.698.133-1.34.4-1.92a4.206 4.206 0 0 1 1.153-1.5c.498-.413 1.111-.731 1.833-.96.722-.228 1.53-.346 2.428-.346a9.13 9.13 0 0 1 2.45.346c.343.098.628.203.864.318.234.114.407.21.509.29.1.08.171.167.213.246.045.082.078.184.1.296.021.116.038.256.054.423a8.398 8.398 0 0 1 0 1.35 2.12 2.12 0 0 1-.082.441c-.036.11-.087.185-.147.224a.425.425 0 0 1-.225.055c-.098 0-.244-.06-.45-.172a8.844 8.844 0 0 0-1.821-.736 5.007 5.007 0 0 0-1.366-.168 3.39 3.39 0 0 0-.946.112 1.796 1.796 0 0 0-.656.33 1.361 1.361 0 0 0-.388.495 1.484 1.484 0 0 0-.126.614c0 .335.1.618.306.848.203.227.463.432.799.608.33.175.704.337 1.131.491.42.153.848.318 1.28.496.432.179.86.391 1.28.63.42.241.798.532 1.131.883.329.345.597.764.799 1.25.2.483.305 1.06.305 1.723z"/>
        <path fill="#269FDA" d="M56.497 50.51c-7.603 2.463-14.887 5.608-21.88 9.375-3.398-15.658-9.637-30.437-18.463-44.418 4.687-2.636 9.665-4.676 14.886-5.83.006.124.019.248.041.373.321 1.755 2.239 2.88 4.284 2.513 2.043-.367 3.442-2.088 3.12-3.843l-.01-.05a43.225 43.225 0 0 1 12.577 1.232c2.413 6.12 2.7 8.778 3.447 13.393-1.413-3.201-2.513-5.761-4.68-8.306-9.332-1.435-17.216.157-24.11 3.822 5.882 11.857 9.452 22.302 12.41 34.625 6.067-1.701 12.572-2.832 18.378-2.886z"/>
        <path fill="#1C3664" d="M11.342 14.777c10.116 12.52 16.838 27.077 21.53 42.854C25.65 39.437 13.591 22.99 0 12.16c4.804-3.19 9.779-5.8 14.942-7.78.628 1.595 2.516 2.55 4.514 2.187 2.234-.406 3.762-2.31 3.41-4.251a3.117 3.117 0 0 0-.103-.409A66.66 66.66 0 0 1 35.468 0c1.306 1.214 3.745 4.567 4.06 6.176-10.657.696-21.183 3.457-28.186 8.601z"/>
        <path fill="#269FDA" d="M10.47 25.654a11.64 11.64 0 0 0-1.506 2.087c8.78 7.337 16.843 16.986 22.075 27.816-8.197-10.365-18.645-20.853-29.713-26.73 1.244-2.51 2.946-5.268 5.097-7.276a91.712 91.712 0 0 1 4.048 4.103z"/>
    </g>
</svg>
